<svg xmlns="http://www.w3.org/2000/svg" version="1.0" preserveAspectRatio="xMidYMid meet" viewBox="465.17 113 292.84 584.5">
<metadata>
Created by potrace 1.16, written by Peter Selinger 2001-2019
</metadata>
<g transform="translate(0.000000,820.000000) scale(0.100000,-0.100000)" fill="#000000" stroke="none">
<path d="M4724 7051 c-19 -11 -38 -36 -48 -62 -24 -60 -32 -224 -16 -344 l13 -96 41 -27 41 -27 820 -5 c919 -6 863 -2 1025 -82 69 -34 103 -60 181 -138 83 -83 102 -108 142 -190 82 -171 77 -38 77 -1935 0 -1892 5 -1765 -75 -1930 -87 -181 -247 -318 -450 -386 l-70 -24 -830 -5 c-771 -5 -832 -6 -856 -23 -53 -36 -75 -143 -65 -325 7 -131 16 -160 61 -202 l27 -25 856 0 c800 0 863 1 942 19 256 56 466 172 655 361 157 157 255 312 320 508 68 203 65 106 65 2032 0 1893 2 1822 -56 2007 -126 401 -459 735 -861 862 -171 53 -221 56 -1099 56 -776 0 -810 -1 -840 -19z"/>
</g>
</svg>
